<?xml version="1.0" encoding="UTF-8"?>
<svg width="144" height="144" version="1.1" viewBox="0 0 41.91 41.91" xmlns="http://www.w3.org/2000/svg" xmlns:cc="http://creativecommons.org/ns#" xmlns:dc="http://purl.org/dc/elements/1.1/" xmlns:rdf="http://www.w3.org/1999/02/22-rdf-syntax-ns#">
  <metadata>
    <rdf:RDF>
      <cc:Work rdf:about="">
        <dc:format>image/svg+xml</dc:format>
        <dc:type rdf:resource="http://purl.org/dc/dcmitype/StillImage"/>
        <dc:title/>
      </cc:Work>
    </rdf:RDF>
  </metadata>
  <g transform="translate(-220.89 -228)">
    <path d="m238.58 239.62-2.8412-4.373c-1.0907-0.10277-2.4671-0.37931-3.3307 2.741-0.85426 3.1642-2.221 9.4028-2.221 9.4028l11.977 13.322s6.2658 3.8452 9.8221 2.0259c3.5564-1.8195 5.3381-3.5245 6.6434-5.3907 1.3053-1.8662 1.6637-2.6844 1.7959-4.8862 0.13216-2.2018-0.42595-14.256-0.42595-14.256-1.1103-1.2854-3.8971-1.3388-4.2591 0.2747-0.36202 1.6135-0.21852 5.1134-0.21852 5.1134l-9.9465-13.944c-1.0449-0.38972-2.5493-0.34088-2.7479 1.6028l4.8022 7.0317-2.097 1.0674-5.9586-8.3827c-1.1765-0.38095-2.4354 0.15388-3.0089 1.516l2.659 3.922" fill="#ea8806"/>
    <path d="m231.48 237.01c0.10457-0.73239-7.9902 17.411-7.9902 17.411s-1.2822 9.0259 2.0715 11.196c3.3539 2.1702 5.7214 2.8607 7.9902 3.058 2.2688 0.1973 3.1566 0.0985 5.1295-0.8878 1.9729-0.98645 12.133-7.497 12.133-7.497 0.55801-1.6043-0.78913-4.0444-2.3675-3.5512-1.5783 0.49321-4.5376 2.3675-4.5376 2.3675l7.1024-15.586c-0.18498-1.0998-0.97944-2.3782-2.762-1.5783l-5.1295 10.358-1.9729-1.2824 5.7214-12.035c-0.25838-1.2094-1.3511-2.0322-2.8173-1.8478l-6.0606 12.501-2.1702-1.1837 5.4254-10.654c-0.45642-0.99594-0.90503-2.3262-3.0291-1.4328l-5.5529 11.001c-1.9236-1.0358-1.5663-0.79598-1.9236-1.0358 0 0 3.5945-6.9534 3.6992-7.5463-0.36672-1.6882-1.4759-2.4292-2.9593-1.7756z" fill="#ffb74d"/>
  </g>
</svg>
