<svg width="144" height="144" viewBox="0 0 41.91 41.91" xmlns="http://www.w3.org/2000/svg"><path d="m17.69 11.62-2.841-4.373c-1.09-.103-2.467-.38-3.33 2.741-.855 3.164-2.222 9.403-2.222 9.403l11.977 13.322s6.266 3.845 9.822 2.026c3.557-1.82 5.338-3.525 6.644-5.391 1.305-1.866 1.663-2.684 1.796-4.886.132-2.202-.426-14.256-.426-14.256-1.11-1.286-3.898-1.339-4.26.275-.362 1.613-.218 5.113-.218 5.113L24.685 1.65c-1.044-.39-2.549-.341-2.747 1.603l4.802 7.031-2.097 1.068-5.959-8.383c-1.176-.38-2.435.154-3.009 1.516l2.66 3.922" fill="#ea8806"/><path d="M10.59 9.01c.105-.732-7.99 17.411-7.99 17.411S1.318 35.447 4.67 37.617c3.354 2.17 5.722 2.86 7.99 3.058 2.27.197 3.157.098 5.13-.888 1.973-.986 12.133-7.497 12.133-7.497.558-1.604-.79-4.044-2.367-3.551-1.579.493-4.538 2.367-4.538 2.367L30.12 15.52c-.185-1.1-.98-2.378-2.762-1.578L22.23 24.3l-1.972-1.282 5.721-12.035c-.258-1.21-1.35-2.032-2.817-1.848l-6.06 12.501-2.17-1.184 5.425-10.654c-.457-.996-.905-2.326-3.03-1.433l-5.552 11.001c-1.924-1.035-1.567-.795-1.924-1.035 0 0 3.595-6.954 3.7-7.547-.368-1.688-1.477-2.429-2.96-1.775z" fill="#ffb74d"/></svg>