<?xml version="1.0" encoding="UTF-8" standalone="no"?>
<!-- Created with Inkscape (http://www.inkscape.org/) -->

<svg
   xmlns:dc="http://purl.org/dc/elements/1.1/"
   xmlns:cc="http://creativecommons.org/ns#"
   xmlns:rdf="http://www.w3.org/1999/02/22-rdf-syntax-ns#"
   xmlns:svg="http://www.w3.org/2000/svg"
   xmlns="http://www.w3.org/2000/svg"
   xmlns:sodipodi="http://sodipodi.sourceforge.net/DTD/sodipodi-0.dtd"
   xmlns:inkscape="http://www.inkscape.org/namespaces/inkscape"
   width="512"
   height="512"
   viewBox="0 0 135.46666 135.46666"
   version="1.1"
   id="svg8"
   inkscape:version="0.92.4 (5da689c313, 2019-01-14)"
   sodipodi:docname="logo.svg"
   inkscape:export-filename="C:\Users\Manu\Desktop\audience\src\logo.png"
   inkscape:export-xdpi="96"
   inkscape:export-ydpi="96">
  <defs
     id="defs2" />
  <sodipodi:namedview
     id="base"
     pagecolor="#ffffff"
     bordercolor="#666666"
     borderopacity="1.0"
     inkscape:pageopacity="0.0"
     inkscape:pageshadow="2"
     inkscape:zoom="0.49497475"
     inkscape:cx="157.92819"
     inkscape:cy="241.45019"
     inkscape:document-units="mm"
     inkscape:current-layer="layer1"
     showgrid="false"
     fit-margin-top="0"
     fit-margin-left="0"
     fit-margin-right="0"
     fit-margin-bottom="0"
     units="px"
     inkscape:window-width="1920"
     inkscape:window-height="1017"
     inkscape:window-x="-8"
     inkscape:window-y="-8"
     inkscape:window-maximized="1" />
  <metadata
     id="metadata5">
    <rdf:RDF>
      <cc:Work
         rdf:about="">
        <dc:format>image/svg+xml</dc:format>
        <dc:type
           rdf:resource="http://purl.org/dc/dcmitype/StillImage" />
        <dc:title></dc:title>
      </cc:Work>
    </rdf:RDF>
  </metadata>
  <g
     inkscape:label="Layer 1"
     inkscape:groupmode="layer"
     id="layer1"
     transform="translate(-33.564361,1.885428)">
    <g
       id="g912"
       transform="matrix(0.26458333,0,0,0.26458333,33.564298,-0.31593891)">
      <path
         id="path815"
         d="m 489.824,221.327 8.8,-18.725 c 12.63,-26.875 4.392,-58.932 -19.629,-76.388 v 0 C 435.724,94.768 383.985,77.086 330.519,75.472 v 0 c -29.681,-0.896 -55.815,19.415 -62.275,48.398 l -4.501,20.193 c -2.637,11.832 -7.571,23.031 -14.523,32.962 v 0 c -14.717,21.025 -20.05,47.215 -14.727,72.321 l 15.609,87.191 c 4.142,23.139 20.511,42.209 42.755,49.811 l 12.829,4.384 12.829,4.384 c 22.244,7.602 46.86,2.538 64.298,-13.226 l 65.707,-59.402 c 19.576,-16.596 31.387,-40.572 32.616,-66.207 v 0 c 0.58,-12.107 3.532,-23.983 8.688,-34.954 z"
         style="fill:#fed9a8"
         inkscape:connector-curvature="0" />
      <path
         id="path817"
         d="m 478.995,126.214 v 0 c -7.119,-5.173 -14.471,-9.966 -22.017,-14.384 7.057,15.96 7.275,34.669 -0.576,51.377 l -8.8,18.725 c -5.156,10.971 -8.108,22.848 -8.688,34.956 v 0 c -1.229,25.635 -13.04,49.61 -32.615,66.207 l -65.708,59.402 c -17.437,15.764 -42.054,20.827 -64.298,13.226 l -12.829,-4.384 -10.254,-3.504 c 6.718,17.932 21.147,32.193 39.648,38.515 l 12.829,4.384 12.829,4.384 c 22.244,7.602 46.86,2.538 64.298,-13.226 l 65.707,-59.401 c 19.576,-16.596 31.387,-40.572 32.616,-66.207 v 0 c 0.581,-12.108 3.532,-23.985 8.688,-34.956 l 8.8,-18.725 c 12.628,-26.875 4.391,-58.933 -19.63,-76.389 z"
         style="fill:#f4c892"
         inkscape:connector-curvature="0" />
      <path
         id="path819"
         d="m 341.347,286.385 c 26.586,9.086 40.772,38.003 31.686,64.588 l -3.054,-3.453 c -23.248,-26.283 -59.093,-37.607 -93.221,-29.449 v 0 c 9.086,-26.585 38.003,-40.771 64.589,-31.686 z"
         style="fill:#ed999b"
         inkscape:connector-curvature="0" />
      <path
         id="path821"
         d="m 249.349,185.02 -3.735,-20.349 c -5.361,-29.206 -30.71,-50.489 -60.404,-50.714 v 0 C 131.721,113.552 79.351,129.269 34.925,159.059 v 0 C 10.262,175.597 0.821,207.32 12.427,234.652 l 8.087,19.043 c 4.738,11.158 7.24,23.138 7.363,35.259 v 0 c 0.26,25.663 11.158,50.067 30.094,67.391 l 63.419,61.839 c 16.83,16.411 41.238,22.4 63.753,15.643 l 12.985,-3.897 12.985,-3.897 c 22.515,-6.757 39.592,-25.196 44.604,-48.162 l 18.888,-86.54 c 6.267,-24.887 1.927,-51.259 -11.986,-72.825 v 0 c -6.573,-10.186 -11.081,-21.564 -13.27,-33.486 z"
         style="fill:#fed9a8"
         inkscape:connector-curvature="0" />
      <path
         id="path823"
         d="m 262.618,218.506 v 0 c -6.572,-10.187 -11.08,-21.564 -13.269,-33.487 l -3.735,-20.349 c -5.361,-29.206 -30.71,-50.489 -60.404,-50.714 v 0 c -12.031,-0.091 -24.004,0.641 -35.844,2.158 22.547,6.113 40.285,24.684 44.667,48.556 l 3.736,20.349 c 2.189,11.923 6.697,23.3 13.268,33.486 v 0 c 13.913,21.565 18.254,47.937 11.986,72.825 l -18.888,86.54 c -5.013,22.966 -22.09,41.405 -44.604,48.162 l -12.985,3.897 -5.131,1.54 c 13.64,5.75 29.083,6.752 43.727,2.357 l 12.985,-3.897 12.985,-3.897 c 22.515,-6.757 39.592,-25.196 44.604,-48.162 l 18.888,-86.54 c 6.268,-24.886 1.927,-51.258 -11.986,-72.824 z"
         style="fill:#f4c892"
         inkscape:connector-curvature="0" />
      <path
         id="path825"
         d="m 182.431,377.633 c 26.909,-8.076 42.177,-36.437 34.101,-63.346 l -3.182,3.335 c -24.223,25.387 -60.47,35.349 -94.266,25.91 v 0 c 8.076,26.909 36.437,42.176 63.347,34.101 z"
         style="fill:#ed999b"
         inkscape:connector-curvature="0" />
      <path
         id="path827"
         d="m 375.981,213.187 c 2.65,-3.193 2.21,-7.928 -0.983,-10.578 -3.192,-2.649 -7.928,-2.21 -10.578,0.982 l -29.404,35.428 c -3.514,4.235 -4.723,9.927 -3.232,15.224 1.491,5.298 5.49,9.523 10.698,11.303 l 19.456,6.65 c 0.805,0.275 1.625,0.405 2.431,0.405 3.123,0 6.041,-1.964 7.107,-5.084 1.342,-3.926 -0.753,-8.196 -4.678,-9.538 l -19.457,-6.65 c -0.703,-0.24 -0.983,-0.761 -1.095,-1.157 -0.112,-0.395 -0.144,-0.986 0.332,-1.559 z"
         inkscape:connector-curvature="0" />
      <path
         id="path829"
         d="m 313.114,153.162 c -13.628,0.641 -25.656,4.157 -26.161,4.306 -3.978,1.176 -6.25,5.354 -5.074,9.333 1.177,3.977 5.353,6.25 9.333,5.074 0.107,-0.031 10.774,-3.15 22.609,-3.707 8.645,-0.407 19.482,0.488 24.279,6.602 -0.234,1.517 -0.006,3.118 0.752,4.585 1.334,2.584 3.959,4.066 6.679,4.065 1.161,0 2.34,-0.27 3.442,-0.839 4.457,-2.303 6.149,-7.775 3.852,-12.459 -4.118,-8.395 -14.329,-18.148 -39.711,-16.96 z"
         inkscape:connector-curvature="0" />
      <path
         id="path831"
         d="m 408.822,203.271 c 1.499,-0.697 2.66,-1.825 3.405,-3.169 13.535,-3.434 32.848,18.113 38.856,26.414 1.468,2.033 3.765,3.113 6.095,3.113 1.523,0 3.06,-0.461 4.388,-1.42 3.365,-2.427 4.126,-7.122 1.699,-10.486 -0.308,-0.427 -7.668,-10.57 -18.054,-19.417 -19.324,-16.463 -33.39,-15.009 -41.785,-10.89 -4.682,2.297 -6.695,7.659 -4.581,12.208 1.747,3.762 6.215,5.395 9.977,3.647 z"
         inkscape:connector-curvature="0" />
      <path
         id="path833"
         d="m 139.953,303.731 c 3.008,2.41 6.708,3.677 10.468,3.677 1.609,0 3.23,-0.232 4.81,-0.706 l 19.693,-5.91 c 3.973,-1.193 6.228,-5.381 5.035,-9.354 -1.191,-3.974 -5.38,-6.224 -9.355,-5.036 l -19.692,5.91 c -0.716,0.213 -1.244,-0.048 -1.565,-0.304 -0.32,-0.257 -0.691,-0.718 -0.638,-1.46 l 3.307,-45.922 c 0.298,-4.138 -2.815,-7.734 -6.952,-8.032 -4.154,-0.298 -7.734,2.815 -8.032,6.953 l -3.307,45.922 c -0.395,5.489 1.933,10.821 6.228,14.262 z"
         inkscape:connector-curvature="0" />
      <path
         id="path835"
         d="m 113.952,236.646 c -1.054,-2.502 -3.146,-4.398 -5.739,-5.201 -28.456,-8.815 -60.193,15.398 -61.531,16.433 -3.278,2.537 -3.876,7.246 -1.344,10.526 2.531,3.281 7.248,3.888 10.532,1.36 0.069,-0.053 7.067,-5.403 16.751,-9.739 6.541,-2.929 15.449,-5.874 24.063,-5.444 l -3.477,6.794 c -1.89,3.693 -0.428,8.219 3.265,10.109 1.095,0.561 2.264,0.827 3.417,0.827 2.73,0 5.363,-1.494 6.693,-4.091 l 7.084,-13.842 c 1.236,-2.413 1.34,-5.232 0.286,-7.732 z"
         inkscape:connector-curvature="0" />
      <path
         id="path837"
         d="m 224.3,194.573 c -1.688,-0.128 -41.514,-2.863 -60.411,20.164 -1.723,2.099 -2.425,4.835 -1.926,7.505 0.498,2.667 2.138,4.962 4.496,6.294 l 13.533,7.653 c 1.169,0.661 2.438,0.975 3.691,0.975 2.619,0 5.164,-1.373 6.545,-3.816 2.042,-3.611 0.771,-8.194 -2.84,-10.236 l -6.663,-3.768 c 15.598,-11.548 42.011,-9.82 42.446,-9.789 4.138,0.303 7.738,-2.79 8.051,-6.924 0.314,-4.137 -2.785,-7.745 -6.922,-8.058 z"
         inkscape:connector-curvature="0" />
      <path
         id="path839"
         d="m 364.353,352.499 3.055,3.453 c 1.441,1.629 3.498,2.534 5.626,2.534 0.489,0 0.983,-0.048 1.474,-0.146 2.623,-0.525 4.769,-2.405 5.634,-4.936 5.043,-14.757 4.039,-30.594 -2.831,-44.594 -6.868,-14.001 -18.778,-24.489 -33.534,-29.532 -14.759,-5.044 -30.594,-4.038 -44.595,2.831 -6.861,3.366 -12.871,7.949 -17.817,13.477 l 0.554,-2.537 c 6.707,-26.772 1.976,-55.419 -12.988,-78.614 -6.069,-9.407 -10.17,-19.76 -12.192,-30.771 l -3.735,-20.349 C 247,130.615 218.513,106.698 185.268,106.446 130.013,106.047 76.609,122.064 30.742,152.821 3.127,171.336 -7.483,206.987 5.512,237.589 l 8.087,19.043 c 4.376,10.306 6.652,21.207 6.765,32.4 0.282,27.602 12.106,54.119 32.447,72.775 l 63.333,61.757 c 13.676,13.334 31.852,20.506 50.425,20.504 6.926,0 13.91,-0.998 20.732,-3.045 l 25.971,-7.794 c 25.116,-7.538 44.192,-28.136 49.784,-53.756 l 11.818,-54.146 c 1.171,0.304 2.414,0.341 3.632,0.05 31.498,-7.527 64.391,2.865 85.847,27.122 z M 267.32,289.496 c -0.02,0.077 -0.038,0.155 -0.055,0.233 l -18.888,86.54 c -4.429,20.289 -19.536,36.6 -39.424,42.57 l -25.972,7.794 c -19.886,5.969 -41.48,0.672 -56.349,-13.826 L 63.214,350.968 C 63.156,350.912 63.099,350.857 63.04,350.804 45.705,334.945 35.626,312.373 35.387,288.88 35.254,275.711 32.576,262.886 27.427,250.76 L 19.34,231.717 c -10.182,-23.977 -1.868,-51.91 19.767,-66.418 42.801,-28.7 92.569,-43.837 144.055,-43.837 0.662,0 1.327,0.002 1.99,0.008 26.048,0.197 48.368,18.937 53.072,44.558 l 3.735,20.349 v 0 c 2.379,12.954 7.205,25.135 14.345,36.203 12.739,19.742 16.753,44.133 11.016,66.916 z m 23.017,18.806 c 4.034,-5.328 9.288,-9.677 15.462,-12.706 10.398,-5.1 22.162,-5.848 33.119,-2.102 10.96,3.745 19.805,11.534 24.905,21.932 3.047,6.21 4.54,12.909 4.451,19.631 -19.028,-17.553 -43.803,-27.116 -69.347,-27.116 -2.857,-10e-4 -5.722,0.119 -8.59,0.361 z"
         inkscape:connector-curvature="0" />
      <path
         id="path841"
         d="m 218.284,306.981 c -2.604,-0.625 -5.339,0.183 -7.185,2.119 l -3.183,3.335 c -22.356,23.431 -55.621,32.574 -86.811,23.861 -2.641,-0.738 -5.467,0.021 -7.383,1.975 -1.918,1.954 -2.62,4.797 -1.833,7.419 7.581,25.26 30.835,41.607 55.949,41.607 5.542,0 11.179,-0.797 16.753,-2.47 30.833,-9.253 48.39,-41.867 39.137,-72.701 -0.769,-2.561 -2.843,-4.521 -5.444,-5.145 z m -38.012,63.457 c -11.092,3.33 -22.817,2.14 -33.016,-3.35 -6.055,-3.26 -11.142,-7.803 -14.972,-13.28 28.395,3.472 57,-5.088 78.873,-23.779 -0.484,18.21 -12.511,34.894 -30.885,40.409 z"
         inkscape:connector-curvature="0" />
      <path
         id="path843"
         d="M 483.411,120.137 C 438.736,87.671 385.945,69.63 330.746,67.963 297.508,66.956 268.144,89.785 260.911,122.236 l -4.083,18.318 c -0.903,4.049 1.648,8.063 5.697,8.966 4.055,0.902 8.064,-1.649 8.966,-5.698 l 4.083,-18.317 c 5.667,-25.426 28.649,-43.321 54.717,-42.524 52.17,1.575 102.064,18.627 144.287,49.311 21.072,15.315 28.325,43.541 17.246,67.117 l -8.8,18.724 c -5.602,11.921 -8.762,24.636 -9.393,37.792 -1.125,23.468 -12.048,45.642 -29.969,60.836 -0.062,0.051 -0.121,0.104 -0.18,0.157 l -65.708,59.402 c -15.405,13.926 -37.183,18.405 -56.831,11.689 l -25.661,-8.77 c -0.815,-0.278 -1.619,-0.573 -2.415,-0.886 -3.857,-1.515 -8.221,0.385 -9.737,4.248 -1.516,3.862 0.386,8.221 4.248,9.737 1.009,0.396 2.036,0.773 3.048,1.118 l 25.658,8.769 c 7.627,2.607 15.504,3.877 23.327,3.877 17.627,0 34.965,-6.458 48.438,-18.638 l 65.622,-59.323 c 21.03,-17.874 33.845,-43.927 35.167,-71.498 0.537,-11.182 3.223,-21.989 7.984,-32.121 l 8.8,-18.724 c 14.14,-30.09 4.883,-66.116 -22.011,-85.661 z"
         inkscape:connector-curvature="0" />
      <g
         id="g845">
</g>
      <g
         id="g847">
</g>
      <g
         id="g849">
</g>
      <g
         id="g851">
</g>
      <g
         id="g853">
</g>
      <g
         id="g855">
</g>
      <g
         id="g857">
</g>
      <g
         id="g859">
</g>
      <g
         id="g861">
</g>
      <g
         id="g863">
</g>
      <g
         id="g865">
</g>
      <g
         id="g867">
</g>
      <g
         id="g869">
</g>
      <g
         id="g871">
</g>
      <g
         id="g873">
</g>
    </g>
  </g>
</svg>
